<mxfile host="app.diagrams.net" agent="Mozilla/5.0 (Macintosh; Intel Mac OS X 10_15_7) AppleWebKit/537.36 (KHTML, like Gecko) Chrome/130.0.0.0 Safari/537.36" version="24.8.6">
  <diagram name="Sayfa -1" id="amoz55qUOvyxKMkHzIAd">
    <mxGraphModel dx="1719" dy="513" grid="1" gridSize="10" guides="1" tooltips="1" connect="1" arrows="1" fold="1" page="1" pageScale="1" pageWidth="827" pageHeight="1169" math="0" shadow="0">
      <root>
        <mxCell id="0" />
        <mxCell id="1" parent="0" />
        <mxCell id="lFEhJn9h5m0Hjn2l6AG--1" value="Player" style="shape=umlActor;verticalLabelPosition=bottom;verticalAlign=top;html=1;outlineConnect=0;" parent="1" vertex="1">
          <mxGeometry x="-340" y="250" width="80" height="120" as="geometry" />
        </mxCell>
        <mxCell id="lFEhJn9h5m0Hjn2l6AG--5" value="Start new game" style="ellipse;whiteSpace=wrap;html=1;" parent="1" vertex="1">
          <mxGeometry x="-110" y="210" width="120" height="40" as="geometry" />
        </mxCell>
        <mxCell id="lFEhJn9h5m0Hjn2l6AG--8" value="Enter hall" style="ellipse;whiteSpace=wrap;html=1;" parent="1" vertex="1">
          <mxGeometry x="-110" y="260" width="120" height="40" as="geometry" />
        </mxCell>
        <mxCell id="lFEhJn9h5m0Hjn2l6AG--9" value="Find rune" style="ellipse;whiteSpace=wrap;html=1;" parent="1" vertex="1">
          <mxGeometry x="-110" y="310" width="120" height="40" as="geometry" />
        </mxCell>
        <mxCell id="lFEhJn9h5m0Hjn2l6AG--10" value="Use enchantments" style="ellipse;whiteSpace=wrap;html=1;" parent="1" vertex="1">
          <mxGeometry x="-110" y="360" width="120" height="40" as="geometry" />
        </mxCell>
        <mxCell id="lFEhJn9h5m0Hjn2l6AG--11" value="Collect enchantments" style="ellipse;whiteSpace=wrap;html=1;" parent="1" vertex="1">
          <mxGeometry x="-110" y="460" width="120" height="40" as="geometry" />
        </mxCell>
        <mxCell id="lFEhJn9h5m0Hjn2l6AG--12" value="Pause/resume game" style="ellipse;whiteSpace=wrap;html=1;" parent="1" vertex="1">
          <mxGeometry x="-110" y="410" width="120" height="40" as="geometry" />
        </mxCell>
        <mxCell id="lFEhJn9h5m0Hjn2l6AG--13" value="Exit game" style="ellipse;whiteSpace=wrap;html=1;" parent="1" vertex="1">
          <mxGeometry x="-110" y="560" width="120" height="40" as="geometry" />
        </mxCell>
        <mxCell id="lFEhJn9h5m0Hjn2l6AG--14" value="View help" style="ellipse;whiteSpace=wrap;html=1;" parent="1" vertex="1">
          <mxGeometry x="-110" y="510" width="120" height="40" as="geometry" />
        </mxCell>
        <mxCell id="lFEhJn9h5m0Hjn2l6AG--17" value="Avoid monsters" style="ellipse;whiteSpace=wrap;html=1;" parent="1" vertex="1">
          <mxGeometry x="-110" y="610" width="120" height="40" as="geometry" />
        </mxCell>
        <mxCell id="lFEhJn9h5m0Hjn2l6AG--19" value="Monsters" style="shape=umlActor;verticalLabelPosition=bottom;verticalAlign=top;html=1;outlineConnect=0;" parent="1" vertex="1">
          <mxGeometry x="150" y="380" width="80" height="120" as="geometry" />
        </mxCell>
        <mxCell id="lFEhJn9h5m0Hjn2l6AG--20" value="Archer Monster" style="shape=umlActor;verticalLabelPosition=bottom;verticalAlign=top;html=1;outlineConnect=0;" parent="1" vertex="1">
          <mxGeometry x="330" y="310" width="30" height="60" as="geometry" />
        </mxCell>
        <mxCell id="lFEhJn9h5m0Hjn2l6AG--23" value="Fighter Monster" style="shape=umlActor;verticalLabelPosition=bottom;verticalAlign=top;html=1;outlineConnect=0;" parent="1" vertex="1">
          <mxGeometry x="330" y="420" width="30" height="60" as="geometry" />
        </mxCell>
        <mxCell id="lFEhJn9h5m0Hjn2l6AG--24" value="Wizard Monster" style="shape=umlActor;verticalLabelPosition=bottom;verticalAlign=top;html=1;outlineConnect=0;" parent="1" vertex="1">
          <mxGeometry x="330" y="530" width="30" height="60" as="geometry" />
        </mxCell>
        <mxCell id="lFEhJn9h5m0Hjn2l6AG--32" value="" style="endArrow=classic;html=1;rounded=0;" parent="1" target="lFEhJn9h5m0Hjn2l6AG--19" edge="1">
          <mxGeometry width="50" height="50" relative="1" as="geometry">
            <mxPoint x="310" y="540" as="sourcePoint" />
            <mxPoint x="200" y="520" as="targetPoint" />
          </mxGeometry>
        </mxCell>
        <mxCell id="lFEhJn9h5m0Hjn2l6AG--33" value="" style="endArrow=classic;html=1;rounded=0;" parent="1" target="lFEhJn9h5m0Hjn2l6AG--19" edge="1">
          <mxGeometry width="50" height="50" relative="1" as="geometry">
            <mxPoint x="300" y="440" as="sourcePoint" />
            <mxPoint x="240" y="481" as="targetPoint" />
          </mxGeometry>
        </mxCell>
        <mxCell id="lFEhJn9h5m0Hjn2l6AG--34" value="" style="endArrow=classic;html=1;rounded=0;" parent="1" edge="1">
          <mxGeometry width="50" height="50" relative="1" as="geometry">
            <mxPoint x="310" y="340" as="sourcePoint" />
            <mxPoint x="240" y="400" as="targetPoint" />
          </mxGeometry>
        </mxCell>
        <mxCell id="lFEhJn9h5m0Hjn2l6AG--37" value="" style="endArrow=classic;html=1;rounded=0;entryX=0;entryY=0.5;entryDx=0;entryDy=0;exitX=1;exitY=0.3333333333333333;exitDx=0;exitDy=0;exitPerimeter=0;" parent="1" source="lFEhJn9h5m0Hjn2l6AG--1" target="lFEhJn9h5m0Hjn2l6AG--5" edge="1">
          <mxGeometry width="50" height="50" relative="1" as="geometry">
            <mxPoint x="150" y="570" as="sourcePoint" />
            <mxPoint x="200" y="520" as="targetPoint" />
          </mxGeometry>
        </mxCell>
        <mxCell id="lFEhJn9h5m0Hjn2l6AG--38" value="" style="endArrow=classic;html=1;rounded=0;entryX=0;entryY=0.5;entryDx=0;entryDy=0;" parent="1" target="lFEhJn9h5m0Hjn2l6AG--8" edge="1">
          <mxGeometry width="50" height="50" relative="1" as="geometry">
            <mxPoint x="-260" y="290" as="sourcePoint" />
            <mxPoint x="-100" y="240" as="targetPoint" />
          </mxGeometry>
        </mxCell>
        <mxCell id="lFEhJn9h5m0Hjn2l6AG--39" value="" style="endArrow=classic;html=1;rounded=0;entryX=0;entryY=0.5;entryDx=0;entryDy=0;" parent="1" target="lFEhJn9h5m0Hjn2l6AG--9" edge="1">
          <mxGeometry width="50" height="50" relative="1" as="geometry">
            <mxPoint x="-260" y="290" as="sourcePoint" />
            <mxPoint x="-100" y="290" as="targetPoint" />
          </mxGeometry>
        </mxCell>
        <mxCell id="lFEhJn9h5m0Hjn2l6AG--40" value="" style="endArrow=classic;html=1;rounded=0;entryX=0;entryY=0.5;entryDx=0;entryDy=0;" parent="1" target="lFEhJn9h5m0Hjn2l6AG--10" edge="1">
          <mxGeometry width="50" height="50" relative="1" as="geometry">
            <mxPoint x="-260" y="290" as="sourcePoint" />
            <mxPoint x="-90" y="300" as="targetPoint" />
          </mxGeometry>
        </mxCell>
        <mxCell id="lFEhJn9h5m0Hjn2l6AG--41" value="" style="endArrow=classic;html=1;rounded=0;entryX=0;entryY=0.5;entryDx=0;entryDy=0;exitX=1;exitY=0.3333333333333333;exitDx=0;exitDy=0;exitPerimeter=0;" parent="1" source="lFEhJn9h5m0Hjn2l6AG--1" target="lFEhJn9h5m0Hjn2l6AG--12" edge="1">
          <mxGeometry width="50" height="50" relative="1" as="geometry">
            <mxPoint x="-170" y="400" as="sourcePoint" />
            <mxPoint x="-80" y="310" as="targetPoint" />
          </mxGeometry>
        </mxCell>
        <mxCell id="lFEhJn9h5m0Hjn2l6AG--42" value="" style="endArrow=classic;html=1;rounded=0;entryX=0;entryY=0.5;entryDx=0;entryDy=0;exitX=1;exitY=0.3333333333333333;exitDx=0;exitDy=0;exitPerimeter=0;" parent="1" source="lFEhJn9h5m0Hjn2l6AG--1" target="lFEhJn9h5m0Hjn2l6AG--11" edge="1">
          <mxGeometry width="50" height="50" relative="1" as="geometry">
            <mxPoint x="-160" y="410" as="sourcePoint" />
            <mxPoint x="-70" y="320" as="targetPoint" />
          </mxGeometry>
        </mxCell>
        <mxCell id="lFEhJn9h5m0Hjn2l6AG--43" value="" style="endArrow=classic;html=1;rounded=0;entryX=0;entryY=0.5;entryDx=0;entryDy=0;exitX=1;exitY=0.3333333333333333;exitDx=0;exitDy=0;exitPerimeter=0;" parent="1" source="lFEhJn9h5m0Hjn2l6AG--1" target="lFEhJn9h5m0Hjn2l6AG--14" edge="1">
          <mxGeometry width="50" height="50" relative="1" as="geometry">
            <mxPoint x="-150" y="420" as="sourcePoint" />
            <mxPoint x="-60" y="330" as="targetPoint" />
          </mxGeometry>
        </mxCell>
        <mxCell id="lFEhJn9h5m0Hjn2l6AG--44" value="" style="endArrow=classic;html=1;rounded=0;entryX=0;entryY=0.5;entryDx=0;entryDy=0;" parent="1" target="lFEhJn9h5m0Hjn2l6AG--13" edge="1">
          <mxGeometry width="50" height="50" relative="1" as="geometry">
            <mxPoint x="-260" y="290" as="sourcePoint" />
            <mxPoint x="-50" y="340" as="targetPoint" />
          </mxGeometry>
        </mxCell>
        <mxCell id="lFEhJn9h5m0Hjn2l6AG--45" value="" style="endArrow=classic;html=1;rounded=0;entryX=0;entryY=0.5;entryDx=0;entryDy=0;exitX=1;exitY=0.3333333333333333;exitDx=0;exitDy=0;exitPerimeter=0;" parent="1" source="lFEhJn9h5m0Hjn2l6AG--1" target="lFEhJn9h5m0Hjn2l6AG--17" edge="1">
          <mxGeometry width="50" height="50" relative="1" as="geometry">
            <mxPoint x="-200" y="380" as="sourcePoint" />
            <mxPoint x="-40" y="350" as="targetPoint" />
          </mxGeometry>
        </mxCell>
        <mxCell id="lFEhJn9h5m0Hjn2l6AG--47" value="" style="endArrow=classic;html=1;rounded=0;entryX=1;entryY=0.5;entryDx=0;entryDy=0;exitX=0;exitY=0.3333333333333333;exitDx=0;exitDy=0;exitPerimeter=0;" parent="1" source="lFEhJn9h5m0Hjn2l6AG--19" target="lFEhJn9h5m0Hjn2l6AG--17" edge="1">
          <mxGeometry width="50" height="50" relative="1" as="geometry">
            <mxPoint x="150" y="570" as="sourcePoint" />
            <mxPoint x="200" y="520" as="targetPoint" />
          </mxGeometry>
        </mxCell>
        <mxCell id="NydO8VDSdEUmjiB7iGCL-2" value="«actor»&lt;br&gt;&lt;b&gt;Game Engine&lt;/b&gt;" style="html=1;whiteSpace=wrap;" parent="1" vertex="1">
          <mxGeometry x="-410" y="470" width="160" height="80" as="geometry" />
        </mxCell>
        <mxCell id="NydO8VDSdEUmjiB7iGCL-8" value="" style="endArrow=classic;html=1;rounded=0;entryX=0;entryY=0.5;entryDx=0;entryDy=0;exitX=1;exitY=0.3333333333333333;exitDx=0;exitDy=0;exitPerimeter=0;" parent="1" target="lFEhJn9h5m0Hjn2l6AG--5" edge="1">
          <mxGeometry width="50" height="50" relative="1" as="geometry">
            <mxPoint x="-250" y="510" as="sourcePoint" />
            <mxPoint x="-100" y="450" as="targetPoint" />
          </mxGeometry>
        </mxCell>
        <mxCell id="NydO8VDSdEUmjiB7iGCL-9" value="" style="endArrow=classic;html=1;rounded=0;exitX=1;exitY=0.3333333333333333;exitDx=0;exitDy=0;exitPerimeter=0;" parent="1" edge="1">
          <mxGeometry width="50" height="50" relative="1" as="geometry">
            <mxPoint x="-250" y="510" as="sourcePoint" />
            <mxPoint x="-110" y="430" as="targetPoint" />
          </mxGeometry>
        </mxCell>
        <mxCell id="NydO8VDSdEUmjiB7iGCL-10" value="" style="endArrow=classic;html=1;rounded=0;exitX=1;exitY=0.3333333333333333;exitDx=0;exitDy=0;exitPerimeter=0;" parent="1" edge="1">
          <mxGeometry width="50" height="50" relative="1" as="geometry">
            <mxPoint x="-250" y="510" as="sourcePoint" />
            <mxPoint x="-110" y="530" as="targetPoint" />
          </mxGeometry>
        </mxCell>
        <mxCell id="NydO8VDSdEUmjiB7iGCL-11" value="" style="endArrow=classic;html=1;rounded=0;exitX=1;exitY=0.3333333333333333;exitDx=0;exitDy=0;exitPerimeter=0;" parent="1" edge="1">
          <mxGeometry width="50" height="50" relative="1" as="geometry">
            <mxPoint x="-250" y="510" as="sourcePoint" />
            <mxPoint x="-110" y="580" as="targetPoint" />
          </mxGeometry>
        </mxCell>
        <mxCell id="DNC0VFlXYT1_TxPYI0Tc-3" value="" style="swimlane;startSize=0;" vertex="1" parent="1">
          <mxGeometry x="-200" y="150" width="300" height="520" as="geometry" />
        </mxCell>
        <mxCell id="DNC0VFlXYT1_TxPYI0Tc-4" value="&lt;font style=&quot;font-size: 14px;&quot;&gt;&lt;b&gt;Rokue-Like Game&lt;/b&gt;&lt;/font&gt;" style="text;html=1;align=center;verticalAlign=middle;whiteSpace=wrap;rounded=0;" vertex="1" parent="DNC0VFlXYT1_TxPYI0Tc-3">
          <mxGeometry x="80" y="10" width="140" height="30" as="geometry" />
        </mxCell>
      </root>
    </mxGraphModel>
  </diagram>
</mxfile>
